<svg width="128" height="128" viewBox="0 0 128 128" fill="none" xmlns="http://www.w3.org/2000/svg">
<g clip-path="url(#clip0_1_6)">
<rect width="128" height="128" fill="black"/>
<path d="M35.68 109V19.4H70.048C74.912 19.4 79.3067 20.616 83.232 23.048C87.1573 25.48 90.272 28.744 92.576 32.84C94.88 36.8933 96.032 41.3947 96.032 46.344C96.032 50.3973 95.2853 54.1307 93.792 57.544C92.3413 60.9147 90.2933 63.8373 87.648 66.312C85.0453 68.7867 82.0373 70.664 78.624 71.944L100.064 109H82.08L61.344 73.352H51.296V109H35.68ZM51.296 57.736H68.256C70.4747 57.736 72.5013 57.1813 74.336 56.072C76.1707 54.9627 77.6427 53.4693 78.752 51.592C79.8613 49.7147 80.416 47.624 80.416 45.32C80.416 42.9733 79.8613 40.8613 78.752 38.984C77.6427 37.1067 76.1707 35.6133 74.336 34.504C72.5013 33.3947 70.4747 32.84 68.256 32.84H51.296V57.736Z" fill="white" fill-opacity="0.75"/>
<rect x="4" y="4" width="120" height="120" stroke="white" stroke-opacity="0.75" stroke-width="8"/>
</g>
<defs>
<clipPath id="clip0_1_6">
<rect width="128" height="128" fill="white"/>
</clipPath>
</defs>
</svg>
